<svg xmlns="http://www.w3.org/2000/svg" viewBox="0 0 100 100">
  <rect width="100" height="100" rx="20" fill="#09090b"/>
  <g transform="translate(12 6) scale(0.95)" fill="white">
    <circle cx="40" cy="3.5" r="2.5"/>
    <path d="M27 21 Q27 7 40 7 Q53 7 53 21 Z"/>
    <rect x="28"   y="15.5" width="24" height="1.5" fill="#09090b"/>
    <rect x="29.5" y="11.5" width="21" height="1.5" fill="#09090b"/>
    <rect x="34" y="21" width="12" height="3.5" rx="0.5"/>
    <path d="M11 34 L40 25 L69 34 Z"/>
    <rect x="11" y="30.5" width="58" height="1.5" fill="#09090b"/>
    <rect x="16" y="28"   width="48" height="1.5" fill="#09090b"/>
    <rect x="13" y="34" width="5.5" height="21"/>
    <rect x="25" y="34" width="5.5" height="21"/>
    <rect x="37" y="34" width="5.5" height="21"/>
    <rect x="49" y="34" width="5.5" height="21"/>
    <rect x="61" y="34" width="5.5" height="21"/>
    <rect x="5" y="55" width="70" height="5.5" rx="0.5"/>
    <rect x="5" y="62" width="70" height="12"  rx="0.5"/>
    <rect x="37.5" y="66" width="5" height="4.5" fill="#09090b"/>
    <rect x="5" y="76" width="70" height="5.5" rx="0.5"/>
  </g>
</svg>
